<svg fill="none" height="20" viewBox="0 0 20 20" width="20" xmlns="http://www.w3.org/2000/svg"><path d="m17 5.5c0 1.38071-1.1193 2.5-2.5 2.5-.7986 0-1.5097-.37441-1.9674-.95725l-4.61752 2.30879c.05539.2068.08492.42418.08492.64846 0 .2243-.02954.4417-.08495.6486l4.61755 2.3087c.4577-.5829 1.1688-.9573 1.9674-.9573 1.3807 0 2.5 1.1193 2.5 2.5s-1.1193 2.5-2.5 2.5-2.5-1.1193-2.5-2.5c0-.2243.0295-.4417.0849-.6485l-4.61755-2.3088c-.45769.5829-1.1688.9573-1.96735.9573-1.38071 0-2.5-1.1193-2.5-2.5 0-1.38071 1.11929-2.5 2.5-2.5.79859 0 1.50973.37444 1.96742.95734l4.61748-2.30878c-.0554-.20683-.0849-.42425-.0849-.64856 0-1.38071 1.1193-2.5 2.5-2.5s2.5 1.11929 2.5 2.5z" fill="#212121"/></svg>